Patient4_TMGait_0pt4_01_left_28_EMG.mot
version=1
nRows=16
nColumns=33
inDegrees=no
endheader
time	1LAddLong	2LGlutMax	3LGlutMed	4LIliopsoas	5LSemiMemb	6LBicFemLong	7LRecFem	8LVastMed	9LVastLat	10LGasMed	11LTibAnt	12lTibPost	13LPeroneusLong	14LSol	15LExtDigLong	16LFlexDigLong	17RAddLong	18RGlutMax	19RGlutMed	20RIliopsoas	21RSemiMemb	22RBicFemLong	23RRecFem	24RVastMed	25RVastLat	26RGasMed	27RTibAnt	28RTibPost	29RPeroneusLong	30RSol	31RExtDigLong	32RFlexDigLong
35.04	-0.002899	0.033875	-0.10712	0.000916	-0.005493	-0.054626	0.14816	0.006866	-0.016327	0.052185	-0.029907	-0.002747	0.02533	0.053406	0.054932	0.11459	-0.015106	0.05127	0.005341	0.063934	0.14526	-0.004272	-0.2092	-0.065918	0.23254	-0.000763	-0.068665	-0.00061	0.23331	-0.090485	-0.003204	-0.006714
35.041	0.007782	0.044403	-0.12314	-0.006714	-0.055389	-0.18036	0.17105	0.001526	-0.023651	-0.008545	-0.023346	-0.008087	0.029144	0.085449	0.081482	0.29526	0.001831	0.054779	-0.046082	0.022125	0.13519	-0.036316	0.14236	0.012665	0.12634	-0.001221	-0.009003	-0.005188	0.080872	-0.063324	-0.003967	-0.012207
35.042	0.010376	0.085144	-0.11398	0.002136	-0.029602	-0.21835	0.13947	0.000153	0.002594	-0.15839	-0.019379	-0.005035	0.058594	0.13168	0.074005	0.088959	0.022736	0.098267	-0.11154	0.038757	0.098877	-0.048981	0.26825	-0.075989	-0.037231	-0.001068	-0.040741	-0.001526	-0.16357	-0.01358	-0.001373	-0.001068
35.043	0.003204	0.1004	-0.088959	0.012207	-0.004272	-0.089874	0.13199	0.007324	0.024109	-0.062408	0.017242	-0.01297	0.075378	0.07782	0.041199	-0.20721	0.022278	0.027924	-0.13275	0.043488	0.1004	-0.036316	-0.021057	-0.13809	-0.12909	-0.002136	-0.080566	0.001984	0.16998	0.052643	-0.001221	-0.002747
35.044	0.001831	0.082855	-0.16357	0.012512	0.020447	-0.15762	0.13001	0.005646	0.031433	-0.13962	0.053558	-0.0177	0.054779	0.078888	0.039063	0.062714	0.019836	0.08316	-0.1384	-0.011292	0.10208	-0.054016	-0.36987	-0.16281	-0.23285	-0.003815	-0.009766	-0.005798	-0.45319	-0.013123	-0.002747	-0.006561
35.045	-0.001678	0.067139	-0.098419	0.002289	0.027466	-0.26703	0.11002	0.00061	0.018005	-0.092773	0.04425	-0.013428	0.002441	0.040283	-0.004272	0.083618	0.024719	0.027924	-0.18768	-0.053101	0.085602	-0.095367	-0.44739	-0.016785	-0.14618	-0.006561	0.0177	-0.001678	-0.457	0.020905	-0.000763	-0.00824
35.046	-0.021667	0.049896	-0.020447	-0.014648	-0.040894	-0.034637	0.12726	0.011749	-0.017395	0.018768	0.02655	-0.005646	0.007629	-0.11826	-0.023193	-0.94727	0.031281	0.077972	-0.25726	-0.076447	0.076141	-0.11551	-0.23453	0.066071	-0.26215	-0.007629	0.064697	0.000763	-0.061188	-0.005188	-0.00473	-0.012054
35.047	-0.014801	0.02594	0.010223	-0.006104	-0.036621	-0.098114	0.14786	0.005646	-0.028381	0.28534	0.016327	0.007019	-0.010223	-0.21179	-0.019531	-0.13977	0.039978	0.05661	-0.19836	-0.10452	0.071411	-0.14801	0.086517	-0.000916	-0.26428	0	0.011444	-0.000458	0.94269	-0.011749	-0.003204	-0.006104
35.048	-0.003357	0.029449	-0.068054	-0.001373	-0.098877	-0.20493	0.13687	0.012207	-0.041504	0.34027	0.008392	0.020599	-0.024414	-0.18341	-0.018768	0.66818	0.049591	0.064545	0.15472	-0.1178	0.10101	-0.13687	0.18936	0.054779	-0.075989	0.009613	0.024567	0.001373	0.002441	-0.044556	-0.006866	-0.005646
35.049	0.005951	0.063171	-0.1001	-0.00061	-0.074921	-0.15488	0.078125	0.011444	-0.035858	0.18814	0.023499	0.004883	-0.053406	-0.21973	0.22614	-0.31189	0.061646	0.089111	0.18921	-0.080872	0.11078	-0.13504	0.12894	0.010834	0.008087	0.000305	0.041351	0.004883	-0.33402	-0.033875	-0.000458	-0.015411
35.05	0.001526	0.079803	0.064087	-0.003357	0.003052	-0.22232	0.070496	-0.009613	-0.035706	0.007782	0.019531	-0.006561	-0.14404	-0.17563	0.039368	-0.18692	0.067444	0.098877	0.23041	-0.22827	0.045776	-0.10834	0.055847	-0.16129	0.025787	-0.00824	0.071869	-0.004578	-0.16739	0.013275	-0.002899	-0.011902
35.051	0.007935	0.037994	-0.010223	-0.002899	0.080872	-0.24109	0.074768	0.002136	-0.049896	-0.080109	0.022888	0.006409	-0.14526	-0.018463	-0.038757	0.78354	0.026093	0.075684	-0.29633	-0.3891	-0.090637	-0.044098	-0.053864	-0.27664	-0.075836	-0.013123	0.071869	-0.000153	0.084381	0.08194	0.006561	-0.010376
35.052	-0.000458	0.041046	0.008698	-0.010376	0.04425	-0.063324	0.063324	0.001678	-0.062256	-0.048523	0.016785	0.00824	-0.10056	-0.014038	-0.039825	0.056915	-0.000916	0.072937	0.062866	-0.27634	-0.074615	-0.028992	-0.11688	-0.14374	-0.080261	-0.006866	-0.053406	-0.001984	0.33035	0.046692	-0.004272	-0.014496
35.053	-0.011139	0.046387	0.029755	0.000763	-0.010681	0.054779	0.072021	-0.003815	-0.018005	-0.066986	0.002899	0.003204	-0.10544	0.011139	-0.027161	-0.054016	-0.006714	0.082092	-0.050354	0.076447	0.066681	-0.017242	-0.021057	-0.099335	-0.10437	-0.00473	-0.075684	-0.002899	0.30853	-0.059204	-0.001526	-0.012054
35.054	-0.00061	0.030975	-0.022583	0.013428	-0.033875	0.19821	0.1532	0.012207	0.016785	-0.010071	-0.001373	-0.000458	-0.053253	0.024261	-0.020142	-0.056152	-0.011902	0.075684	0.21744	0.32989	0.083771	-0.023956	-0.019073	-0.055847	-0.090179	-0.001678	-0.019836	-0.001221	0.096588	-0.02594	-0.003662	-0.015869
35.055	0.006561	0.004272	-0.027771	0.001526	0.018311	0.30075	0.15869	0.014038	-0.013275	0.069733	-0.017242	-0.003204	0.048218	-0.03952	-0.018158	-0.048676	0.003967	0.058136	0.33035	0.49911	0.17944	-0.049591	-0.037231	-0.012665	-0.036774	-0.005341	-0.000763	0.000305	0.10193	-0.009155	-0.001221	-0.013428
